<svg xmlns="http://www.w3.org/2000/svg" viewBox="0 0 256 256" fill="none">
  <defs>
    <linearGradient id="g1" x1="24" y1="20" x2="212" y2="220" gradientUnits="userSpaceOnUse">
      <stop stop-color="#38BDF8"/>
      <stop offset="0.5" stop-color="#22C55E"/>
      <stop offset="1" stop-color="#F59E0B"/>
    </linearGradient>
  </defs>
  <rect width="256" height="256" rx="56" fill="#0F172A"/>
  <path d="M36 138c24-34 56-51 94-51 42 0 71 17 90 39-14 10-27 15-43 15-11 0-21-2-31-5-10-3-22-5-37-5-28 0-49 7-73 22Z" fill="url(#g1)" opacity="0.9"/>
  <path d="M65 169c18-11 37-17 65-17 15 0 27 2 38 5 9 2 17 4 27 4 9 0 17-1 26-4-17 28-45 49-93 49-25 0-47-11-63-37Z" fill="#22C55E" opacity="0.88"/>
  <circle cx="83" cy="115" r="8" fill="#E2E8F0"/>
  <path d="M143 58c25 12 41 37 42 67-10-7-23-11-39-11-3-19-13-38-30-54 9-4 17-5 27-2Z" fill="#38BDF8" opacity="0.9"/>
  <path d="M104 56c-23 18-32 40-33 67 12-6 25-9 40-9 4-21 12-38 24-54-11-7-21-8-31-4Z" fill="#16A34A" opacity="0.95"/>
</svg>
